<?xml version="1.0" encoding="utf-8"?>
<!-- Generator: Adobe Illustrator 17.1.0, SVG Export Plug-In . SVG Version: 6.00 Build 0)  -->
<!DOCTYPE svg PUBLIC "-//W3C//DTD SVG 1.1//EN" "http://www.w3.org/Graphics/SVG/1.1/DTD/svg11.dtd">
<svg version="1.1" xmlns="http://www.w3.org/2000/svg" xmlns:xlink="http://www.w3.org/1999/xlink" x="0px" y="0px"
	 viewBox="0 0 184.604 188" enable-background="new 0 0 184.604 188" xml:space="preserve">
<g id="Layer_2" display="none">
	<rect x="-1060.32" y="-621.8" display="inline" stroke="#FFFFFF" stroke-miterlimit="10" width="2328" height="1662"/>
</g>
<g id="Layer_1">
	<circle fill="#F1F1F1" stroke="#D07E3A" stroke-width="8" stroke-miterlimit="10" cx="92.111" cy="96.778" r="86.246"/>
	<g>
		<path fill="none" stroke="#D07E3A" stroke-width="8" stroke-miterlimit="10" d="M157.85,132.85c0,6.627-5.373,11.85-12,11.85h-107
			c-6.627,0-12-5.223-12-11.85l-9-46.075c0-6.627,5.373-12.075,12-12.075h124c6.627,0,12,5.448,12,12.075L157.85,132.85z"/>
		<line fill="none" stroke="#D07E3A" stroke-width="8" stroke-miterlimit="10" x1="17.18" y1="93.7" x2="164.18" y2="93.7"/>
		<line fill="none" stroke="#D07E3A" stroke-width="8" stroke-miterlimit="10" x1="23.18" y1="111.7" x2="160.18" y2="111.7"/>
		<line fill="none" stroke="#D07E3A" stroke-width="8" stroke-miterlimit="10" x1="25.18" y1="128.7" x2="158.18" y2="128.7"/>
		<line fill="none" stroke="#D07E3A" stroke-width="8" stroke-miterlimit="10" x1="90.18" y1="74.7" x2="90.18" y2="143.7"/>
		<line fill="none" stroke="#D07E3A" stroke-width="8" stroke-miterlimit="10" x1="65.85" y1="75" x2="69.85" y2="144"/>
		<line fill="none" stroke="#D07E3A" stroke-width="8" stroke-miterlimit="10" x1="116.6" y1="77" x2="112.85" y2="146"/>
		<line fill="none" stroke="#D07E3A" stroke-width="8" stroke-miterlimit="10" x1="141.85" y1="77" x2="133.85" y2="146"/>
		<line fill="none" stroke="#D07E3A" stroke-width="8" stroke-miterlimit="10" x1="40.35" y1="75" x2="47.85" y2="144"/>
		<path fill="none" stroke="#D07E3A" stroke-width="8" stroke-miterlimit="10" d="M49.18,76.7V48c0-6.627,6.043-12.3,12.67-12.3h60
			c6.627,0,11.33,5.673,11.33,12.3v28.7"/>
	</g>
</g>
</svg>
