<?xml version="1.0" encoding="utf-8"?>
<!-- Generator: Adobe Illustrator 17.1.0, SVG Export Plug-In . SVG Version: 6.00 Build 0)  -->
<!DOCTYPE svg PUBLIC "-//W3C//DTD SVG 1.1//EN" "http://www.w3.org/Graphics/SVG/1.1/DTD/svg11.dtd">
<svg version="1.1" xmlns="http://www.w3.org/2000/svg" xmlns:xlink="http://www.w3.org/1999/xlink" x="0px" y="0px"
	 viewBox="0 0 180.985 240.85" enable-background="new 0 0 180.985 240.85" xml:space="preserve">
<g id="Layer_2" display="none">
	<rect x="-751.575" y="-123.5" display="inline" stroke="#FFFFFF" stroke-miterlimit="10" width="2328" height="1662"/>
</g>
<g id="Layer_1">
	<circle fill="#F1F1F1" stroke="#D07E3A" stroke-width="8" stroke-miterlimit="10" cx="90.246" cy="95.491" r="86.246"/>
	<g>
		<path fill="none" stroke="#D07E3A" stroke-width="8" stroke-miterlimit="10" d="M89.985,67h28c0,0,11.667,1.833,12.667,10.833
			s1.668,10.179-2.333,17.083c-4.002,6.905-24,38.542-24,38.542s-2.834,6.639-13.334,7.938s-12.999-8.365-12.999-8.365
			L53.652,93.314c0,0-8-13.219-1.333-19.679c6.667-6.46,11-6.635,17-6.635S89.985,67,89.985,67z"/>
		<path fill="none" stroke="#D07E3A" stroke-width="8" stroke-miterlimit="10" d="M63.985,50c0,0,9.667,5.455,11.333,15.894"/>
		<path fill="none" stroke="#D07E3A" stroke-width="8" stroke-miterlimit="10" d="M78.652,45.667c0,0,6.333,7.726,6.667,18.167"/>
		<path fill="none" stroke="#D07E3A" stroke-width="8" stroke-miterlimit="10" d="M103.985,45.667c0,0-3.667,1.417-6.333,11.375
			s0,8.852,0,8.852"/>
		<path fill="none" stroke="#D07E3A" stroke-width="8" stroke-miterlimit="10" d="M121.069,48.202c0,0-6.418,3.062-8.751,7.597
			C109.985,60.333,107.985,67,107.985,67"/>
	</g>
	<text transform="matrix(1.3307 0 0 1 44.2671 225.6662)" fill="#D07E3A" font-family="'Playbill'" font-size="53.6416">Berry</text>
</g>
</svg>
