<?xml version="1.0" encoding="utf-8"?>
<!-- Generator: Adobe Illustrator 17.1.0, SVG Export Plug-In . SVG Version: 6.00 Build 0)  -->
<!DOCTYPE svg PUBLIC "-//W3C//DTD SVG 1.1//EN" "http://www.w3.org/Graphics/SVG/1.1/DTD/svg11.dtd">
<svg version="1.1" xmlns="http://www.w3.org/2000/svg" xmlns:xlink="http://www.w3.org/1999/xlink" x="0px" y="0px"
	 viewBox="0 0 181.506 188" enable-background="new 0 0 181.506 188" xml:space="preserve">
<g id="Layer_2" display="none">
	<rect x="-2219.475" y="-829.95" display="inline" stroke="#FFFFFF" stroke-miterlimit="10" width="2328" height="1662"/>
</g>
<g id="Layer_1">
	<circle fill="#F1F1F1" stroke="#D07E3A" stroke-width="8" stroke-miterlimit="10" cx="91.115" cy="92.778" r="86.246"/>
	<g>
		<path fill="none" stroke="#D07E3A" stroke-width="8" stroke-miterlimit="10" d="M85,45.55h13c0,0-0.223,6.225,1.013,9.225
			s1.738,5.862,5.987,7.862c4.249,2,16.356,3.796,22.052,11.989s8.338,22.925,6.268,29.666c-2.071,6.742-7.308,19.975-18.815,23.975
			c-11.506,4-33.826,7.221-47.523,0.241s-22.63-22.678-18.531-38.807S64.468,66.16,66.984,64.705
			C69.5,63.25,80.407,61.5,81.828,59.75c1.422-1.75,2.949-3.725,3.185-6.225C85.25,51.025,85,45.55,85,45.55z"/>
		<line fill="none" stroke="#D07E3A" stroke-width="8" stroke-miterlimit="10" x1="79.097" y1="132.056" x2="74.139" y2="140.25"/>
		<line fill="none" stroke="#D07E3A" stroke-width="8" stroke-miterlimit="10" x1="86.974" y1="132.607" x2="85.013" y2="144.25"/>
		<line fill="none" stroke="#D07E3A" stroke-width="8" stroke-miterlimit="10" x1="94.075" y1="132.353" x2="99.928" y2="143.001"/>
		
			<line fill="none" stroke="#D07E3A" stroke-width="8" stroke-miterlimit="10" x1="104.04" y1="131.008" x2="110.016" y2="141.438"/>
	</g>
</g>
</svg>
