<?xml version="1.0" encoding="utf-8"?>
<!-- Generator: Adobe Illustrator 17.1.0, SVG Export Plug-In . SVG Version: 6.00 Build 0)  -->
<!DOCTYPE svg PUBLIC "-//W3C//DTD SVG 1.1//EN" "http://www.w3.org/Graphics/SVG/1.1/DTD/svg11.dtd">
<svg version="1.1" xmlns="http://www.w3.org/2000/svg" xmlns:xlink="http://www.w3.org/1999/xlink" x="0px" y="0px"
	 viewBox="0 0 181.604 240.85" enable-background="new 0 0 181.604 240.85" xml:space="preserve">
<g id="Layer_2" display="none">
	<rect x="-349.5" y="-384.65" display="inline" stroke="#FFFFFF" stroke-miterlimit="10" width="2328" height="1662"/>
</g>
<g id="Layer_1">
	<circle fill="#F1F1F1" stroke="#D07E3A" stroke-width="8" stroke-miterlimit="10" cx="91.358" cy="91.491" r="86.246"/>
	<path fill="none" stroke="#D07E3A" stroke-width="8" stroke-miterlimit="10" d="M41.169,92.335c0,0,0.667-5.173,3-7.842
		c1.01-1.155,2.082-1.81,2.974-2.182c1.484-0.619,2.692-1.759,3.483-3.159c1.802-3.191,4.988-8.458,7.877-11.339
		c4.333-4.322,19.671-11.989,29.002-12.655c9.331-0.667,24.331,6,28.998,10s8.524,11.375,11.181,14.377
		c2.125,2.401,4.993,5.756,7.98,7.648c1.714,1.085,3.339,5.475,2.839,8.308s-0.271,4.833-3.469,7.416
		c-3.198,2.584-3.662,2.31-5.759,3.905c-2.098,1.595-5.07,7.179-7.671,9.846c-2.601,2.667-7.434,6.667-10.101,7.833
		s-18.167,7.167-31.333,2.667c-13.167-4.5-23.103-13.206-25.77-17.655c-2.667-4.449-4.425-6.591-6.091-7.833
		c-1.667-1.243-3.058-3.011-5.139-4.187C41.856,96.74,41.169,92.335,41.169,92.335z"/>
	<text transform="matrix(1.3307 0 0 1 38.9221 225.666)" fill="#D07E3A" font-family="'Playbill'" font-size="53.6416">Lemon</text>
</g>
</svg>
