<?xml version="1.0" encoding="utf-8"?>
<!-- Generator: Adobe Illustrator 17.1.0, SVG Export Plug-In . SVG Version: 6.00 Build 0)  -->
<!DOCTYPE svg PUBLIC "-//W3C//DTD SVG 1.1//EN" "http://www.w3.org/Graphics/SVG/1.1/DTD/svg11.dtd">
<svg version="1.1" id="Layer_1" xmlns="http://www.w3.org/2000/svg" xmlns:xlink="http://www.w3.org/1999/xlink" x="0px" y="0px"
	 viewBox="0 0 191 249" enable-background="new 0 0 191 249" xml:space="preserve">
<circle fill="#F1F1F1" stroke="#D07E3A" stroke-width="8" stroke-miterlimit="10" cx="96.09" cy="96.228" r="86.246"/>
<g>
	<path fill="none" stroke="#D07E3A" stroke-width="8" stroke-miterlimit="10" d="M89.975,49h13c0,0-0.223,6.225,1.013,9.225
		c1.237,3,1.738,5.863,5.987,7.863s16.356,3.796,22.052,11.989s8.338,22.925,6.268,29.666c-2.071,6.742-7.308,19.975-18.814,23.975
		c-11.506,4-33.826,7.221-47.523,0.241c-13.697-6.98-22.63-22.678-18.531-38.807S69.442,69.61,71.958,68.155
		S85.381,64.95,86.803,63.2c1.422-1.75,2.949-3.725,3.185-6.225C90.225,54.475,89.975,49,89.975,49z"/>
	<line fill="none" stroke="#D07E3A" stroke-width="8" stroke-miterlimit="10" x1="84.072" y1="135.506" x2="79.114" y2="143.7"/>
	<line fill="none" stroke="#D07E3A" stroke-width="8" stroke-miterlimit="10" x1="91.949" y1="136.057" x2="89.988" y2="147.7"/>
	<line fill="none" stroke="#D07E3A" stroke-width="8" stroke-miterlimit="10" x1="99.05" y1="135.803" x2="104.903" y2="146.451"/>
	<line fill="none" stroke="#D07E3A" stroke-width="8" stroke-miterlimit="10" x1="109.015" y1="134.458" x2="114.99" y2="144.888"/>
</g>
<text transform="matrix(1.3307 0 0 1 50.9951 228.8164)" fill="#D07E3A" font-family="'Playbill'" font-size="53.6416">Onion</text>
</svg>
