<?xml version="1.0" encoding="utf-8"?>
<!-- Generator: Adobe Illustrator 17.1.0, SVG Export Plug-In . SVG Version: 6.00 Build 0)  -->
<!DOCTYPE svg PUBLIC "-//W3C//DTD SVG 1.1//EN" "http://www.w3.org/Graphics/SVG/1.1/DTD/svg11.dtd">
<svg version="1.1" xmlns="http://www.w3.org/2000/svg" xmlns:xlink="http://www.w3.org/1999/xlink" x="0px" y="0px"
	 viewBox="0 0 180.888 240.85" enable-background="new 0 0 180.888 240.85" xml:space="preserve">
<g id="Layer_2" display="none">
	<rect x="-550.538" y="-123.5" display="inline" stroke="#FFFFFF" stroke-miterlimit="10" width="2328" height="1662"/>
</g>
<g id="Layer_1">
	<circle fill="#F1F1F1" stroke="#D07E3A" stroke-width="8" stroke-miterlimit="10" cx="90.246" cy="96.491" r="86.246"/>
	<g>
		<path fill="none" stroke="#D07E3A" stroke-width="8" stroke-miterlimit="10" d="M89.429,67.931c0,0-11.208-4.931-18.208-3.597
			c-7,1.333-25.477,12.431-24,37s15.333,36.465,17.333,38.233c2,1.767,8.667,5.434,11.667,5.434s5.333-3.333,11.667-3.333
			c6.333,0,9.333,3.333,15,3.333c5.667,0,11.333-3.868,13-5.434c1.667-1.566,18.042-19.196,17-39.233
			c-1.042-20.037-12.667-31.667-17.333-34.5c-4.667-2.833-14.333-2.833-19.333,0C91.221,68.667,89.429,67.931,89.429,67.931z"/>
		<path fill="none" stroke="#D07E3A" stroke-width="8" stroke-miterlimit="10" d="M89.429,65.833c0,0-2.578-5.5,0.607-10.5
			s9.892-9.575,9.892-9.575"/>
	</g>
	<text transform="matrix(1.3307 0 0 1 44.2856 225.6655)" fill="#D07E3A" font-family="'Playbill'" font-size="53.6416">Apple</text>
</g>
</svg>
