<?xml version="1.0" encoding="utf-8"?>
<!-- Generator: Adobe Illustrator 17.1.0, SVG Export Plug-In . SVG Version: 6.00 Build 0)  -->
<!DOCTYPE svg PUBLIC "-//W3C//DTD SVG 1.1//EN" "http://www.w3.org/Graphics/SVG/1.1/DTD/svg11.dtd">
<svg version="1.1" xmlns="http://www.w3.org/2000/svg" xmlns:xlink="http://www.w3.org/1999/xlink" x="0px" y="0px"
	 viewBox="0 0 181.506 241" enable-background="new 0 0 181.506 241" xml:space="preserve">
<g id="Layer_2" display="none">
	<rect x="-1463.994" y="-909.5" display="inline" stroke="#FFFFFF" stroke-miterlimit="10" width="2328" height="1662"/>
</g>
<g id="Layer_1">
	<circle fill="#F1F1F1" stroke="#D07E3A" stroke-width="8" stroke-miterlimit="10" cx="91.115" cy="92.778" r="86.246"/>
	<g>
		<path fill="none" stroke="#D07E3A" stroke-width="8" stroke-miterlimit="10" d="M85,46h13c0,0-0.223,6,1.013,9
			c1.237,3,1.738,5.75,5.987,7.75s16.356,3.74,22.052,11.932s8.338,22.897,6.268,29.638c-2.071,6.742-7.308,19.96-18.814,23.96
			s-33.826,7.214-47.523,0.234s-22.63-22.682-18.531-38.811s16.015-23.543,18.531-24.998s13.423-3.206,14.845-4.956
			c1.422-1.75,2.949-3.5,3.185-6C85.25,51.25,85,46,85,46z"/>
		<line fill="none" stroke="#D07E3A" stroke-width="8" stroke-miterlimit="10" x1="79.097" y1="132.056" x2="74.139" y2="140.25"/>
		<line fill="none" stroke="#D07E3A" stroke-width="8" stroke-miterlimit="10" x1="86.974" y1="132.607" x2="85.013" y2="144.25"/>
		<line fill="none" stroke="#D07E3A" stroke-width="8" stroke-miterlimit="10" x1="94.075" y1="132.353" x2="99.928" y2="143.001"/>
		
			<line fill="none" stroke="#D07E3A" stroke-width="8" stroke-miterlimit="10" x1="104.04" y1="131.008" x2="110.015" y2="141.438"/>
	</g>
	<text transform="matrix(1.3307 0 0 1 46.3982 225.7683)" fill="#D07E3A" font-family="'Playbill'" font-size="53.6416">Onion</text>
</g>
</svg>
