<?xml version="1.0" encoding="utf-8"?>
<!-- Generator: Adobe Illustrator 17.1.0, SVG Export Plug-In . SVG Version: 6.00 Build 0)  -->
<!DOCTYPE svg PUBLIC "-//W3C//DTD SVG 1.1//EN" "http://www.w3.org/Graphics/SVG/1.1/DTD/svg11.dtd">
<svg version="1.1" xmlns="http://www.w3.org/2000/svg" xmlns:xlink="http://www.w3.org/1999/xlink" x="0px" y="0px"
	 viewBox="0 0 182.506 238.778" enable-background="new 0 0 182.506 238.778" xml:space="preserve">
<g id="Layer_2" display="none">
	<rect x="-1665.457" y="-908.95" display="inline" stroke="#FFFFFF" stroke-miterlimit="10" width="2328" height="1662"/>
</g>
<g id="Layer_1">
	<circle fill="#F1F1F1" stroke="#D07E3A" stroke-width="8" stroke-miterlimit="10" cx="92.115" cy="93.064" r="86.246"/>
	<g>
		<path fill="none" stroke="#D07E3A" stroke-width="8" stroke-miterlimit="10" d="M92.006,97.445c0,0-7.027,0.853-11.017,2.538
			s-12.757,3.111-19.04-1.269s-12.283-11.541-11.283-20.46s6.019-16.525,8.676-19.389C62,56,71.413,47.368,77.75,45.75
			c4.172-1.065,9.379-3.083,18.814-2.417C106,44,118.667,48.667,122.667,52.667s12.996,14.888,13,28.334s-5.606,15.165-9,18.981
			c-3.394,3.816-13.948,1.983-16.141,1.501C108.333,101,97.224,96.567,92.006,97.445z"/>
		<path fill="none" stroke="#D07E3A" stroke-width="8" stroke-miterlimit="10" d="M80.989,103.255c0,0,1.989,5.745,0,12.079
			c-1.989,6.333-5.762,13.706-5.043,16.02s1.387,8.522,9.387,9.085c8,0.562,12.758-0.914,15.712-3.009
			c2.954-2.095,5.516-5.762,3.902-9.762c-1.614-4-3.982-9.906-3.902-14.478c0.08-4.572,2.121-10.841,2.121-10.841"/>
	</g>
	<text transform="matrix(1.3307 0 0 1 6.9709 228.6109)" fill="#D07E3A" font-family="'Playbill'" font-size="53.6416">Mushroom</text>
</g>
</svg>
