<?xml version="1.0" encoding="utf-8"?>
<!-- Generator: Adobe Illustrator 17.1.0, SVG Export Plug-In . SVG Version: 6.00 Build 0)  -->
<!DOCTYPE svg PUBLIC "-//W3C//DTD SVG 1.1//EN" "http://www.w3.org/Graphics/SVG/1.1/DTD/svg11.dtd">
<svg version="1.1" xmlns="http://www.w3.org/2000/svg" xmlns:xlink="http://www.w3.org/1999/xlink" x="0px" y="0px"
	 viewBox="0 0 181.506 241" enable-background="new 0 0 181.506 241" xml:space="preserve">
<g id="Layer_2" display="none">
	<rect x="-249.5" y="-746.5" display="inline" stroke="#FFFFFF" stroke-miterlimit="10" width="2328" height="1662"/>
</g>
<g id="Layer_1">
	<circle fill="#F1F1F1" stroke="#D07E3A" stroke-width="8" stroke-miterlimit="10" cx="91.261" cy="91.491" r="86.246"/>
	<g>
		<path fill="none" stroke="#D07E3A" stroke-width="8" stroke-miterlimit="10" d="M83.244,48.667c0,0,7.782,7.304,17.269,7.152
			c9.487-0.152,23.1-7.127,23.1-7.127"/>
		<path fill="none" stroke="#D07E3A" stroke-width="8" stroke-miterlimit="10" d="M87.501,53.215c0,0-4.149,12.478-9.492,19.798
			c-5.343,7.32-15.426,22.634-24.218,29.977c-8.792,7.343-18.125,13.091-18.125,13.091s2.671,5.272,9,7.586
			c6.329,2.314,19.335-3.686,19.335-3.686l7.493-3.9"/>
		<path fill="none" stroke="#D07E3A" stroke-width="8" stroke-miterlimit="10" d="M95.996,55.351c0,0-0.767,18.669-5.143,27.658
			c-4.376,8.989-9.782,22.713-14.984,30.019c-5.202,7.306-14.839,19.714-14.839,19.714s3.458,4.384,7.047,4.654
			c3.59,0.271,17.296-5.675,22.776-11.202c5.48-5.527,12.575-14.292,12.575-14.292"/>
		<path fill="none" stroke="#D07E3A" stroke-width="8" stroke-miterlimit="10" d="M107,57.204c0,0,1.949,10.796,1.475,23.463
			c-0.475,12.667,0.414,19.28-3.03,31.474C102,124.333,96,140.138,96,140.138s5.098,3.196,12.549-1.471s18.748-19.603,20.433-27.635
			c1.685-8.032,3.352-22.365,1.352-30.365s-12.944-27.452-12.944-27.452"/>
	</g>
	<text transform="matrix(1.3307 0 0 1 32.0481 225.8172)" fill="#D07E3A" font-family="'Playbill'" font-size="53.6416">Banana</text>
</g>
</svg>
