<?xml version="1.0" encoding="utf-8"?>
<!-- Generator: Adobe Illustrator 18.0.0, SVG Export Plug-In . SVG Version: 6.00 Build 0)  -->
<!DOCTYPE svg PUBLIC "-//W3C//DTD SVG 1.1//EN" "http://www.w3.org/Graphics/SVG/1.1/DTD/svg11.dtd">
<svg version="1.1" id="Layer_1" xmlns="http://www.w3.org/2000/svg" xmlns:xlink="http://www.w3.org/1999/xlink" x="0px" y="0px"
	 viewBox="0 0 776.1 792" enable-background="new 0 0 776.1 792" xml:space="preserve">
<g id="Layer_2" display="none">
	<rect x="-811.9" y="-1363.5" display="inline" stroke="#FFFFFF" stroke-miterlimit="10" width="7655.3" height="5465.2"/>
</g>
<g id="Layer_1_1_">
	<circle fill="#F1F1F1" stroke="#D07E3A" stroke-width="8" stroke-miterlimit="10" cx="305.3" cy="317.3" r="283.6"/>
	<g>
		<path fill="none" stroke="#D07E3A" stroke-width="8" stroke-miterlimit="10" d="M302.7,223.4c0,0-36.9-16.2-59.9-11.8
			c-23,4.4-83.8,40.9-78.9,121.7c4.9,80.8,50.4,119.9,57,125.7c6.6,5.8,28.5,17.9,38.4,17.9c9.9,0,17.5-11,38.4-11s30.7,11,49.3,11
			s37.3-12.7,42.7-17.9c5.5-5.1,59.3-63.1,55.9-129c-3.4-65.9-41.7-104.1-57-113.4c-15.3-9.3-47.1-9.3-63.6,0
			C308.6,225.8,302.7,223.4,302.7,223.4z"/>
		<path fill="none" stroke="#D07E3A" stroke-width="8" stroke-miterlimit="10" d="M302.7,216.5c0,0-8.5-18.1,2-34.5
			c10.5-16.4,32.5-31.5,32.5-31.5"/>
	</g>
	<text transform="matrix(1.3307 0 0 1 154.2153 742.0682)" fill="#D07E3A" font-family="'ArialMT'" font-size="176.3926">Apple</text>
</g>
</svg>
