<?xml version="1.0" encoding="utf-8"?>
<!-- Generator: Adobe Illustrator 17.1.0, SVG Export Plug-In . SVG Version: 6.00 Build 0)  -->
<!DOCTYPE svg PUBLIC "-//W3C//DTD SVG 1.1//EN" "http://www.w3.org/Graphics/SVG/1.1/DTD/svg11.dtd">
<svg version="1.1" xmlns="http://www.w3.org/2000/svg" xmlns:xlink="http://www.w3.org/1999/xlink" x="0px" y="0px"
	 viewBox="0 0 180.491 240.491" enable-background="new 0 0 180.491 240.491" xml:space="preserve">
<g id="Layer_2" display="none">
	<rect x="-1250.009" y="-747.009" display="inline" stroke="#FFFFFF" stroke-miterlimit="10" width="2328" height="1662"/>
</g>
<g id="Layer_1">
	<circle fill="#F1F1F1" stroke="#D07E3A" stroke-width="8" stroke-miterlimit="10" cx="91.115" cy="89.555" r="86.246"/>
	<g>
		<path fill="none" stroke="#D07E3A" stroke-width="8" stroke-miterlimit="10" d="M91.006,93.936c0,0-7.027,0.853-11.017,2.538
			C76,98.158,67.233,99.585,60.95,95.205s-12.283-11.541-11.283-20.46s6.019-16.525,8.676-19.389
			C61,52.491,70.413,43.859,76.75,42.241c4.172-1.065,9.379-3.083,18.814-2.417c9.436,0.667,22.102,5.333,26.102,9.333
			s12.996,14.888,13,28.334c0.004,13.446-5.606,15.165-9,18.981c-3.394,3.816-13.948,1.983-16.141,1.501
			S96.224,93.059,91.006,93.936z"/>
		<path fill="none" stroke="#D07E3A" stroke-width="8" stroke-miterlimit="10" d="M79.989,99.746c0,0,1.989,5.745,0,12.079
			c-1.989,6.333-5.762,13.706-5.043,16.02c0.72,2.314,1.387,8.522,9.387,9.085c8,0.562,12.758-0.914,15.712-3.009
			c2.954-2.095,5.516-5.762,3.902-9.762s-3.982-9.906-3.902-14.478s2.121-10.841,2.121-10.841"/>
	</g>
	<text transform="matrix(1.3307 0 0 1 7.4301 225.3085)" fill="#D07E3A" font-family="'Playbill'" font-size="53.6416">Mushroom</text>
</g>
</svg>
