<?xml version="1.0" encoding="utf-8"?>
<!-- Generator: Adobe Illustrator 17.1.0, SVG Export Plug-In . SVG Version: 6.00 Build 0)  -->
<!DOCTYPE svg PUBLIC "-//W3C//DTD SVG 1.1//EN" "http://www.w3.org/Graphics/SVG/1.1/DTD/svg11.dtd">
<svg version="1.1" xmlns="http://www.w3.org/2000/svg" xmlns:xlink="http://www.w3.org/1999/xlink" x="0px" y="0px"
	 viewBox="0 0 182.506 242" enable-background="new 0 0 182.506 242" xml:space="preserve">
<g id="Layer_2" display="none">
	<rect x="-450.993" y="-745.5" display="inline" stroke="#FFFFFF" stroke-miterlimit="10" width="2328" height="1662"/>
</g>
<g id="Layer_1">
	<circle fill="#F1F1F1" stroke="#D07E3A" stroke-width="8" stroke-miterlimit="10" cx="92.261" cy="91.778" r="86.246"/>
	<g>
		<path fill="none" stroke="#D07E3A" stroke-width="8" stroke-miterlimit="10" d="M76.979,70.301c0,0,3.254-10.565,16.138-11.766
			s17.77,11.078,17.77,11.078"/>
		<path fill="none" stroke="#D07E3A" stroke-width="8" stroke-miterlimit="10" d="M102.44,58.452c0,0,6.866-5.664,17.546-1.724
			s19.537,10.455,21.609,23.864s2.306,27.925-10.978,39.167s-22.744,15.28-35.681,15.094C82,134.667,69.958,132.161,60.979,124.08
			S45.085,110.264,45,91.378S57.325,62.34,59.662,61.003c2.338-1.337,11.304-7.803,22.319-2.995"/>
		<path fill="none" stroke="#D07E3A" stroke-width="8" stroke-miterlimit="10" d="M88.667,57.167c0,0-7.581-3.833-8.624-7.5
			C79,46,77.134,42.286,77.134,42.286"/>
		<path fill="none" stroke="#D07E3A" stroke-width="8" stroke-miterlimit="10" d="M93.116,55.334c0,0-0.306-2.453,0.955-7.227
			c1.262-4.774,4.136-8.07,4.136-8.07"/>
		<path fill="none" stroke="#D07E3A" stroke-width="8" stroke-miterlimit="10" d="M102.44,58.452
			c3.109-0.897,9.913-14.314,9.913-14.314"/>
	</g>
	<text transform="matrix(1.3307 0 0 1 34.2553 226.816)" fill="#D07E3A" font-family="'Playbill'" font-size="53.6416">Tomato</text>
</g>
</svg>
