<?xml version="1.0" encoding="utf-8"?>
<!-- Generator: Adobe Illustrator 17.1.0, SVG Export Plug-In . SVG Version: 6.00 Build 0)  -->
<!DOCTYPE svg PUBLIC "-//W3C//DTD SVG 1.1//EN" "http://www.w3.org/Graphics/SVG/1.1/DTD/svg11.dtd">
<svg version="1.1" xmlns="http://www.w3.org/2000/svg" xmlns:xlink="http://www.w3.org/1999/xlink" x="0px" y="0px"
	 viewBox="0 0 180.985 240.85" enable-background="new 0 0 180.985 240.85" xml:space="preserve">
<g id="Layer_2" display="none">
	<rect x="-952.71" y="-123.5" display="inline" stroke="#FFFFFF" stroke-miterlimit="10" width="2328" height="1662"/>
</g>
<g id="Layer_1">
	<circle fill="#F1F1F1" stroke="#D07E3A" stroke-width="8" stroke-miterlimit="10" cx="90.246" cy="95.778" r="86.246"/>
	<g>
		<path fill="none" stroke="#D07E3A" stroke-width="8" stroke-miterlimit="10" d="M93.238,60.167c0,0,9.925,0.417,12.816,5.417
			c2.891,5,3.897,15.042,6.738,18.375c2.84,3.333,5.658,8.284,9.254,11.319c3.596,3.035,9.023,17.837,8.69,23.973
			c-0.333,6.136-8.424,17.828-13.755,20.453c-5.331,2.625-11.33,4.294-15.33,2.961s-8.58-1.914-8.58-1.914L87.985,142
			c0,0-8.31,2.27-12.155,1.218c-3.845-1.052-13.9-5.65-16.345-11.218c-2.445-5.568-5.37-12.944-3.5-19.831
			c1.87-6.887,3.111-9.547,6.889-12.827c3.778-3.28,6.937-6.645,9.691-12.311s3.834-7.939,5.627-11.978
			c0.938-2.112,3.621-6.992,7.293-10.304C88.833,61.73,93.238,60.167,93.238,60.167z"/>
		<path fill="none" stroke="#D07E3A" stroke-width="8" stroke-miterlimit="10" d="M94.235,58.75c0,0-0.012-9.316,4.494-14.783"/>
		<path fill="none" stroke="#D07E3A" stroke-width="8" stroke-miterlimit="10" d="M82.084,70.21c0,0-7.599,3.79-15.599,3.54
			s-16.25-3.54-16.25-3.54s4.286-16.72,17.893-20.965s26.107,2.113,26.107,2.113"/>
	</g>
	<text transform="matrix(1.3307 0 0 1 60.1825 225.6658)" fill="#D07E3A" font-family="'Playbill'" font-size="53.6416">Pear</text>
</g>
</svg>
