<?xml version="1.0" encoding="utf-8"?>
<!-- Generator: Adobe Illustrator 17.1.0, SVG Export Plug-In . SVG Version: 6.00 Build 0)  -->
<!DOCTYPE svg PUBLIC "-//W3C//DTD SVG 1.1//EN" "http://www.w3.org/Graphics/SVG/1.1/DTD/svg11.dtd">
<svg version="1.1" xmlns="http://www.w3.org/2000/svg" xmlns:xlink="http://www.w3.org/1999/xlink" x="0px" y="0px"
	 viewBox="0 0 537 477" enable-background="new 0 0 537 477" xml:space="preserve">
<g id="Layer_2" display="none">
	<rect x="-1662.325" y="-829.95" display="inline" stroke="#FFFFFF" stroke-miterlimit="10" width="2328" height="1662"/>
</g>
<g id="Layer_1">
	<circle fill="#F1F1F1" stroke="#D07E3A" stroke-width="40" stroke-miterlimit="10" cx="272.261" cy="238.778" r="202.246"/>
	<g>
		<polyline fill="none" stroke="#D07E3A" stroke-width="20" stroke-miterlimit="10" points="132,221.883 180.479,135.697 
			272.052,84.525 362.277,133.004 414.797,221.883 		"/>
		<polygon fill="none" stroke="#D07E3A" stroke-width="20" stroke-miterlimit="10" points="274.072,118.191 203.83,153.204 
			159.175,221.883 159.175,351.55 385.175,351.55 385.175,220.536 343.427,153.204 		"/>
		<rect x="233.175" y="171.55" fill="none" stroke="#D07E3A" stroke-width="20" stroke-miterlimit="10" width="76" height="37"/>
		<rect x="203.175" y="249.55" fill="none" stroke="#D07E3A" stroke-width="20" stroke-miterlimit="10" width="137" height="102"/>
		
			<line fill="none" stroke="#D07E3A" stroke-width="20" stroke-miterlimit="10" x1="204.789" y1="249.026" x2="342.148" y2="350.025"/>
		
			<line fill="none" stroke="#D07E3A" stroke-width="20" stroke-miterlimit="10" x1="342.148" y1="249.026" x2="204.789" y2="350.025"/>
	</g>
	<rect x="33.175" y="288.55" fill="#F1F1F1" width="484" height="128"/>
	<line fill="none" stroke="#D07E3A" stroke-width="14" stroke-miterlimit="10" x1="33.175" y1="301.55" x2="517.175" y2="301.55"/>
	<line fill="none" stroke="#D07E3A" stroke-width="14" stroke-miterlimit="10" x1="33.175" y1="403.55" x2="517.175" y2="403.55"/>
	<text transform="matrix(1 0 0 1 38.9998 390.6988)" fill="#D07E3A" font-family="'Homestead-Display'" font-size="108.1177">Farmers</text>
</g>
</svg>
