<?xml version="1.0" encoding="utf-8"?>
<!-- Generator: Adobe Illustrator 17.1.0, SVG Export Plug-In . SVG Version: 6.00 Build 0)  -->
<!DOCTYPE svg PUBLIC "-//W3C//DTD SVG 1.1//EN" "http://www.w3.org/Graphics/SVG/1.1/DTD/svg11.dtd">
<svg version="1.1" xmlns="http://www.w3.org/2000/svg" xmlns:xlink="http://www.w3.org/1999/xlink" x="0px" y="0px"
	 viewBox="0 0 835.525 188" enable-background="new 0 0 835.525 188" xml:space="preserve">
<g id="Layer_2" display="none">
	<rect x="-249.5" y="-829.95" display="inline" stroke="#FFFFFF" stroke-miterlimit="10" width="2328" height="1662"/>
</g>
<g id="Layer_1">
	<g>
		<polyline fill="none" stroke="#D07E3A" stroke-width="8" stroke-miterlimit="10" points="29,98.563 51.317,58.89 93.47,35.333 
			135.004,57.65 159.18,98.563 		"/>
		<polygon fill="none" stroke="#D07E3A" stroke-width="8" stroke-miterlimit="10" points="94.4,50.831 62.311,66.948 42,98.563 
			42,157.55 146,157.55 146,97.944 126.554,66.948 		"/>
		<rect x="76" y="74.55" fill="none" stroke="#D07E3A" stroke-width="8" stroke-miterlimit="10" width="35" height="17"/>
		<rect x="62" y="110.55" fill="none" stroke="#D07E3A" stroke-width="8" stroke-miterlimit="10" width="63" height="47"/>
		
			<line fill="none" stroke="#D07E3A" stroke-width="8" stroke-miterlimit="10" x1="62.507" y1="111.058" x2="125.737" y2="157.551"/>
		
			<line fill="none" stroke="#D07E3A" stroke-width="8" stroke-miterlimit="10" x1="125.737" y1="111.058" x2="62.507" y2="157.551"/>
	</g>
	<polyline fill="none" stroke="#D07E3A" stroke-width="8" stroke-miterlimit="10" points="190,124.55 270,124.55 256,113.748 	"/>
	<g>
		<rect x="301" y="41.55" fill="none" stroke="#D07E3A" stroke-width="8" stroke-miterlimit="10" width="125" height="87"/>
		<circle fill="none" stroke="#F1F1F1" stroke-width="8" stroke-miterlimit="10" cx="342.373" cy="144.321" r="18.929"/>
		<path fill="none" stroke="#D07E3A" stroke-width="8" stroke-miterlimit="10" d="M436,61h31.665c0,0,16.94,5.407,20.05,14.202
			C490.871,84.13,491,96.35,491,96.35v42.665V155h-13.72l-1.803-18.809c0,0-6.009-9.705-13.22-12.108
			c-7.211-2.404-5.617-3.05-12.828-2.449S436,128.199,436,128.199V61z"/>
		<path fill="none" stroke="#D07E3A" stroke-width="8" stroke-miterlimit="10" d="M479.01,99.55l0.142-13.739
			c0,0-2.002-6.593-5.844-9.29c-2.948-2.07-6.416-3.971-7.153-3.971c-3.604,0-20.154,0-20.154,0v27H479.01z"/>
		<line fill="none" stroke="#D07E3A" stroke-width="8" stroke-miterlimit="10" x1="427" y1="140.55" x2="369" y2="140.55"/>
		<line fill="none" stroke="#D07E3A" stroke-width="8" stroke-miterlimit="10" x1="319" y1="140.55" x2="299" y2="140.55"/>
		<circle fill="none" stroke="#D07E3A" stroke-width="8" stroke-miterlimit="10" cx="452.341" cy="146.527" r="14.723"/>
		<circle fill="none" stroke="#D07E3A" stroke-width="8" stroke-miterlimit="10" cx="341.772" cy="146.527" r="14.723"/>
	</g>
	<polyline fill="none" stroke="#D07E3A" stroke-width="8" stroke-miterlimit="10" points="513,124.55 593,124.55 579,113.748 	"/>
	<polyline fill="none" stroke="#D07E3A" stroke-width="8" stroke-miterlimit="10" points="627.5,110.571 700.808,37.262 
		774.977,111.431 	"/>
	<polyline fill="none" stroke="#D07E3A" stroke-width="8" stroke-miterlimit="10" points="652,85.55 652,161.55 749,161.55 
		749,85.55 	"/>
	<rect x="686" y="108.55" fill="none" stroke="#D07E3A" stroke-width="8" stroke-miterlimit="10" width="32" height="52"/>
</g>
</svg>
